<svg xmlns="http://www.w3.org/2000/svg" width="70" height="26" viewBox="0 0 70 26">
  <g id="_100percentsatisfaction" data-name="100percentsatisfaction" transform="translate(-1699 -1172)">
    <rect id="矩形_2680" data-name="矩形 2680" width="70" height="26" transform="translate(1699 1172)" fill="rgba(255,255,255,0)" opacity="0"/>
    <g id="组_221" data-name="组 221" transform="translate(1711.781 1172.948)">
      <path id="路径_842" data-name="路径 842" d="M704.574,1103.422h1.687v-6.632h-1.687l-1.687,1.149v1.453l1.6-1.08h.087Z" transform="translate(-692.577 -1096.609)" fill="#1c1e21"/>
      <path id="路径_843" data-name="路径 843" d="M712.308,1103.525c1.719,0,2.785-1.319,2.785-3.507,0-2.206-1.08-3.484-2.785-3.484s-2.785,1.282-2.785,3.479S710.585,1103.525,712.308,1103.525Zm0-1.3c-.643,0-1.071-.722-1.071-2.215s.425-2.183,1.071-2.183,1.075.7,1.075,2.183-.432,2.216-1.075,2.216Z" transform="translate(-694.525 -1096.534)" fill="#1c1e21"/>
      <path id="路径_844" data-name="路径 844" d="M721.256,1103.525c1.719,0,2.785-1.319,2.785-3.507,0-2.206-1.08-3.484-2.785-3.484s-2.785,1.282-2.785,3.479S719.533,1103.525,721.256,1103.525Zm0-1.3c-.643,0-1.071-.722-1.071-2.215s.425-2.183,1.071-2.183,1.075.7,1.075,2.183-.432,2.216-1.075,2.216Z" transform="translate(-697.152 -1096.534)" fill="#1c1e21"/>
      <path id="路径_845" data-name="路径 845" d="M728.579,1099.877a1.636,1.636,0,1,0,0-3.273,1.521,1.521,0,0,0-1.65,1.628,1.5,1.5,0,0,0,1.65,1.645Zm0-.905c-.266,0-.425-.266-.425-.73s.166-.73.425-.73.418.283.418.73-.151.73-.418.73Zm.883,4.394,4.318-6.632h-1.227l-4.318,6.632Zm3.971.082a1.638,1.638,0,1,0,0-3.277,1.521,1.521,0,0,0-1.65,1.632,1.5,1.5,0,0,0,1.65,1.642Zm0-.91c-.271,0-.425-.262-.425-.73,0-.446.161-.726.425-.726s.418.283.418.726c0,.462-.149.731-.418.731Z" transform="translate(-699.636 -1096.553)" fill="#1c1e21"/>
      <path id="路径_846" data-name="路径 846" d="M688.295,1115.906a2.069,2.069,0,0,0,2.308,1.833c1.423,0,2.4-.774,2.4-1.92,0-.779-.464-1.286-1.464-1.617l-.588-.194c-.591-.2-.856-.464-.856-.827,0-.476.476-.819,1.117-.819a1.155,1.155,0,0,1,1.232.92h1.021a2.283,2.283,0,0,0-4.469.016,1.7,1.7,0,0,0,1.348,1.6l.6.195c.691.227.964.476.964.88,0,.526-.5.881-1.224.881a1.26,1.26,0,0,1-1.345-.943Z" transform="translate(-688.295 -1100.188)" fill="#1c1e21"/>
      <path id="路径_847" data-name="路径 847" d="M697.187,1117.482c-.439,0-.745-.24-.745-.579,0-.394.364-.654.98-.679l1.03-.045-.095.438a1.172,1.172,0,0,1-1.171.865Zm-.406.8a1.6,1.6,0,0,0,1.312-.645h.074l-.124.571h1l.624-2.941a2.127,2.127,0,0,0,.037-.368c0-.786-.708-1.307-1.77-1.307a1.845,1.845,0,0,0-1.94,1.3h1a.85.85,0,0,1,.861-.464c.517,0,.831.224.831.588a.844.844,0,0,1-.025.182l-.062.29-1.184.045c-1.266.046-1.99.6-1.99,1.51a1.274,1.274,0,0,0,1.356,1.239Z" transform="translate(-690.378 -1100.808)" fill="#1c1e21"/>
      <path id="路径_848" data-name="路径 848" d="M703.671,1117.816a2.677,2.677,0,0,0,.575-.045l.166-.794a2.668,2.668,0,0,1-.343.021c-.335,0-.525-.132-.525-.434a1.723,1.723,0,0,1,.041-.314l.459-2.131h.976l.178-.819h-.991l.243-1.138h-1.034l-.236,1.138h-.74l-.169.819h.736l-.5,2.362a2.01,2.01,0,0,0-.045.393C702.459,1117.484,702.951,1117.816,703.671,1117.816Z" transform="translate(-692.395 -1100.392)" fill="#1c1e21"/>
      <path id="路径_849" data-name="路径 849" d="M706.055,1117.432h1.023l.96-4.525h-1.026Zm1.75-5.274a.619.619,0,1,0-.612-.616.619.619,0,0,0,.612.616Z" transform="translate(-693.506 -1100.029)" fill="#1c1e21"/>
      <path id="路径_850" data-name="路径 850" d="M709.424,1115.023c0,.6.348.968,1.062,1.212l.7.236c.372.12.5.283.5.5,0,.331-.354.558-.873.558a.867.867,0,0,1-.92-.583h-1.005c.045.811.81,1.361,1.911,1.361,1.129,0,1.919-.588,1.919-1.444,0-.588-.314-.951-1.062-1.2l-.691-.236c-.368-.125-.55-.277-.55-.509,0-.314.339-.538.807-.538s.786.2.856.525h.96c-.083-.786-.761-1.307-1.808-1.307S709.424,1114.166,709.424,1115.023Z" transform="translate(-694.339 -1100.812)" fill="#1c1e21"/>
      <path id="路径_851" data-name="路径 851" d="M715.348,1117.539h1.034l.779-3.677h.972l.17-.819h-.991l.075-.384a.622.622,0,0,1,.665-.571,1.818,1.818,0,0,1,.455.045l.157-.752a2.711,2.711,0,0,0-.662-.078,1.416,1.416,0,0,0-1.621,1.254l-.1.488h-.732l-.17.819h.74Z" transform="translate(-696.233 -1100.136)" fill="#1c1e21"/>
      <path id="路径_852" data-name="路径 852" d="M720.715,1117.482c-.438,0-.745-.24-.745-.579,0-.394.364-.654.98-.679l1.03-.045-.095.438A1.172,1.172,0,0,1,720.715,1117.482Zm-.406.8a1.6,1.6,0,0,0,1.312-.645h.071l-.124.571h1l.624-2.941a2.063,2.063,0,0,0,.037-.368c0-.786-.708-1.307-1.77-1.307a1.846,1.846,0,0,0-1.94,1.3h1a.85.85,0,0,1,.861-.464c.517,0,.832.224.832.588a.861.861,0,0,1-.026.182l-.062.29-1.184.045c-1.266.046-1.989.6-1.989,1.51a1.274,1.274,0,0,0,1.359,1.239Z" transform="translate(-697.291 -1100.808)" fill="#1c1e21"/>
      <path id="路径_853" data-name="路径 853" d="M728.084,1113.6a2.549,2.549,0,0,0-2.457,2.8,1.8,1.8,0,0,0,1.923,1.911,1.982,1.982,0,0,0,2.076-1.539h-1a.991.991,0,0,1-1.006.67c-.554,0-.951-.393-.951-1.132,0-1.042.558-1.84,1.348-1.84a.833.833,0,0,1,.91.724h.991a1.3,1.3,0,0,0-.013-.186,1.716,1.716,0,0,0-1.818-1.4Z" transform="translate(-699.249 -1100.81)" fill="#1c1e21"/>
      <path id="路径_854" data-name="路径 854" d="M733.711,1117.816a2.676,2.676,0,0,0,.575-.045l.166-.794a2.68,2.68,0,0,1-.344.021c-.335,0-.525-.132-.525-.434a1.737,1.737,0,0,1,.042-.314l.459-2.131h.977l.178-.819h-.991l.244-1.138h-1.034l-.236,1.138h-.74l-.17.819h.736l-.5,2.362a2.006,2.006,0,0,0-.046.393C732.5,1117.484,732.991,1117.816,733.711,1117.816Z" transform="translate(-701.21 -1100.392)" fill="#1c1e21"/>
      <path id="路径_855" data-name="路径 855" d="M736.095,1117.432h1.026l.96-4.525h-1.026Zm1.75-5.274a.619.619,0,1,0-.612-.616.618.618,0,0,0,.612.616Z" transform="translate(-702.32 -1100.029)" fill="#1c1e21"/>
      <path id="路径_856" data-name="路径 856" d="M741.281,1117.442c-.583,0-.964-.442-.964-1.133,0-1.075.571-1.853,1.361-1.853.587,0,.935.442.935,1.183C742.613,1116.628,742.013,1117.442,741.281,1117.442Zm.463-3.846a2.56,2.56,0,0,0-2.5,2.767,1.849,1.849,0,0,0,1.961,1.94,2.569,2.569,0,0,0,2.49-2.768,1.84,1.84,0,0,0-1.949-1.937Z" transform="translate(-703.252 -1100.811)" fill="#1c1e21"/>
      <path id="路径_857" data-name="路径 857" d="M745.808,1118.219h1.03l.579-2.7a1.183,1.183,0,0,1,1.137-1.021.739.739,0,0,1,.807.779,1.845,1.845,0,0,1-.046.381l-.546,2.56H749.8l.583-2.734a2.734,2.734,0,0,0,.058-.53,1.293,1.293,0,0,0-1.365-1.336,1.576,1.576,0,0,0-1.382.779h-.071l.153-.7h-1Z" transform="translate(-705.173 -1100.816)" fill="#1c1e21"/>
      <path id="路径_858" data-name="路径 858" d="M703,1127.039h-1.917l-.135.646h1.1l-.025.116a1.269,1.269,0,0,1-1.293,1.023,1.124,1.124,0,0,1-1.152-1.267c0-1.21.689-2.114,1.6-2.114a.961.961,0,0,1,1.072.849h.817v-.113a1.7,1.7,0,0,0-1.83-1.486,2.642,2.642,0,0,0-2.509,2.925,1.825,1.825,0,0,0,1.918,1.949,2.15,2.15,0,0,0,2.236-1.927Z" transform="translate(-691.353 -1105.467)" fill="#1c1e21"/>
      <path id="路径_859" data-name="路径 859" d="M708.819,1126.45h-.8l-.441,2.075a.934.934,0,0,1-.91.817.523.523,0,0,1-.6-.589,1.827,1.827,0,0,1,.038-.318l.425-1.982h-.8l-.444,2.114a2.827,2.827,0,0,0-.048.45.991.991,0,0,0,1.068,1.026,1.172,1.172,0,0,0,1.062-.582h.055l-.113.511h.772Z" transform="translate(-693.265 -1105.982)" fill="#1c1e21"/>
      <path id="路径_860" data-name="路径 860" d="M711.651,1129.371c-.341,0-.579-.186-.579-.45,0-.306.283-.508.762-.527l.8-.035-.071.34a.91.91,0,0,1-.914.673Zm-.315.624a1.242,1.242,0,0,0,1.019-.5h.058l-.1.444h.779l.486-2.287a1.712,1.712,0,0,0,.029-.283c0-.611-.551-1.016-1.377-1.016a1.434,1.434,0,0,0-1.508,1.01h.771a.663.663,0,0,1,.67-.36c.4,0,.646.173.646.457a.693.693,0,0,1-.019.142l-.048.226-.92.035c-.985.035-1.547.467-1.547,1.174a.991.991,0,0,0,1.058.96Z" transform="translate(-694.745 -1105.951)" fill="#1c1e21"/>
      <path id="路径_861" data-name="路径 861" d="M715.164,1129.943h.8l.425-1.991c.126-.576.425-.856.927-.856a1.807,1.807,0,0,1,.5.077l.161-.743a1.3,1.3,0,0,0-.435-.064,1,1,0,0,0-.9.527h-.055l.1-.469h-.779Z" transform="translate(-696.179 -1105.958)" fill="#1c1e21"/>
      <path id="路径_862" data-name="路径 862" d="M720.071,1129.371c-.341,0-.579-.186-.579-.45,0-.306.283-.508.762-.527l.8-.035-.071.34A.911.911,0,0,1,720.071,1129.371Zm-.315.624a1.244,1.244,0,0,0,1.02-.5h.058l-.1.444h.779l.485-2.287a1.642,1.642,0,0,0,.029-.283c0-.611-.55-1.016-1.378-1.016a1.435,1.435,0,0,0-1.508,1.01h.779a.662.662,0,0,1,.669-.36c.4,0,.647.173.647.457a.664.664,0,0,1-.02.141l-.048.226-.92.035c-.984.035-1.547.467-1.547,1.174a.991.991,0,0,0,1.053.96Z" transform="translate(-697.218 -1105.951)" fill="#1c1e21"/>
      <path id="路径_863" data-name="路径 863" d="M723.6,1129.944h.8l.451-2.1a.92.92,0,0,1,.885-.794.574.574,0,0,1,.627.608,1.465,1.465,0,0,1-.035.3l-.425,1.991h.8l.454-2.124a2.15,2.15,0,0,0,.045-.412,1.006,1.006,0,0,0-1.062-1.039,1.225,1.225,0,0,0-1.074.605h-.058l.119-.547h-.775Z" transform="translate(-698.655 -1105.958)" fill="#1c1e21"/>
      <path id="路径_864" data-name="路径 864" d="M730.444,1129.625a2.106,2.106,0,0,0,.447-.035l.128-.618a2.1,2.1,0,0,1-.267.016c-.261,0-.409-.1-.409-.338a1.373,1.373,0,0,1,.032-.245l.357-1.656h.76l.142-.637h-.769l.19-.885h-.8l-.183.885h-.576l-.132.637h.573l-.393,1.837a1.553,1.553,0,0,0-.035.306C729.5,1129.37,729.884,1129.625,730.444,1129.625Z" transform="translate(-700.343 -1105.625)" fill="#1c1e21"/>
      <path id="路径_865" data-name="路径 865" d="M733.34,1127.821a1.022,1.022,0,0,1,.968-.837.667.667,0,0,1,.7.708,1.149,1.149,0,0,1-.006.129Zm.646,2.187a1.519,1.519,0,0,0,1.6-1.042H734.8a.842.842,0,0,1-1.557-.48c0-.038,0-.086.006-.125h2.484a3.817,3.817,0,0,0,.052-.557,1.382,1.382,0,0,0-1.435-1.457,1.938,1.938,0,0,0-1.876,2.165,1.416,1.416,0,0,0,1.512,1.5Z" transform="translate(-701.257 -1105.952)" fill="#1c1e21"/>
      <path id="路径_866" data-name="路径 866" d="M738.527,1127.821a1.022,1.022,0,0,1,.968-.837.667.667,0,0,1,.7.708c0,.045,0,.109-.006.129Zm.646,2.187a1.519,1.519,0,0,0,1.6-1.042h-.789a.842.842,0,0,1-1.557-.48c0-.038,0-.086.006-.125h2.484a3.8,3.8,0,0,0,.052-.557,1.382,1.382,0,0,0-1.435-1.457,1.938,1.938,0,0,0-1.876,2.165,1.416,1.416,0,0,0,1.516,1.5Z" transform="translate(-702.779 -1105.952)" fill="#1c1e21"/>
    </g>
  </g>
</svg>
