<svg xmlns="http://www.w3.org/2000/svg" width="70" height="26" viewBox="0 0 70 26">
  <g id="anquanbaohu" transform="translate(-453 -200)">
    <path id="路径_886" data-name="路径 886" d="M445.307,240.359c-.208.008-.413.01-.613.01h0c-5.269,0-7.592-2.415-7.611-2.436l-.527-.577-.527.577c-.023.026-2.473,2.622-8.226,2.427l-.742-.026v10.948c0,2.867.957,7.052,9.233,10.249l.258.1.258-.1c8.276-3.2,9.234-7.376,9.234-10.249v-10.95l-.742.026Zm-9.7,14.171-5.524-4.9,1.468-1.189,2.937,2.167a36.107,36.107,0,0,1,7.973-6.154l.559.63a31.335,31.335,0,0,0-7.412,9.442Z" transform="translate(51.939 -36.357)" fill="#188c5a"/>
    <rect id="矩形_2635" data-name="矩形 2635" width="70" height="26" transform="translate(453 200)" fill="none"/>
  </g>
</svg>
