<svg xmlns="http://www.w3.org/2000/svg" width="70" height="26" viewBox="0 0 70 26">
  <g id="kuaisuyunshu_feiji" transform="translate(-453 -1048)">
    <g id="组_224" data-name="组 224" transform="translate(52.609 -48.501)">
      <path id="路径_897" data-name="路径 897" d="M424.456,1117.953h-2.244l.3-1.343h2.114l.148-.7h-2.118l.28-1.273h2.237l.156-.74h-3.108l-1.02,4.8h3.108Zm.343.74h.947l1.489-1.735h.057l.791,1.735h.94l-1.083-2.368,2.127-2.426h-.962l-1.459,1.738h-.06l-.747-1.738h-.966l1.048,2.313Zm5.88-4.8-1.017,4.8h.864l.336-1.572H431.9a1.836,1.836,0,0,0,2.014-1.858,1.364,1.364,0,0,0-1.5-1.366Zm.718.718h.784c.525,0,.851.256.851.724a1.043,1.043,0,0,1-1.16,1.071h-.864Zm2.463,4.079h.868l.382-1.8h.991l.592,1.8h.924l-.666-1.9a1.628,1.628,0,0,0,1.22-1.566,1.332,1.332,0,0,0-1.476-1.326h-1.811Zm1.738-4.085h.941a.666.666,0,0,1,.751.692.95.95,0,0,1-1.06.914h-.977Zm5.871,3.344h-2.244l.3-1.343h2.112l.148-.7h-2.117l.279-1.273h2.237l.157-.74H439.23l-1.02,4.8h3.108Zm.648-.611a1.663,1.663,0,0,0,1.855,1.472c1.143,0,1.924-.621,1.924-1.543,0-.628-.37-1.036-1.177-1.3l-.472-.156c-.475-.16-.688-.37-.688-.666,0-.382.383-.658.9-.658a.929.929,0,0,1,.991.74h.821a1.834,1.834,0,0,0-3.59.013,1.368,1.368,0,0,0,1.083,1.283l.485.156c.555.183.775.383.775.708,0,.422-.4.708-.984.708a1.011,1.011,0,0,1-1.083-.758Zm4.156,0a1.663,1.663,0,0,0,1.855,1.473c1.143,0,1.924-.622,1.924-1.543,0-.628-.37-1.036-1.177-1.3l-.472-.156c-.476-.16-.688-.37-.688-.666,0-.382.382-.658.9-.658a.928.928,0,0,1,.99.74h.821a1.834,1.834,0,0,0-3.59.013,1.369,1.369,0,0,0,1.084,1.283l.485.156c.555.183.774.383.774.708,0,.422-.4.708-.983.708a1.012,1.012,0,0,1-1.084-.758Zm-25.883,8.169a1.663,1.663,0,0,0,1.855,1.472c1.143,0,1.924-.621,1.924-1.543,0-.628-.37-1.036-1.177-1.3l-.472-.156c-.476-.16-.688-.37-.688-.666,0-.382.383-.658.9-.658a.928.928,0,0,1,.991.74h.82a1.834,1.834,0,0,0-3.59.013,1.369,1.369,0,0,0,1.084,1.283l.485.156c.555.183.775.383.775.708,0,.422-.4.708-.984.708a1.013,1.013,0,0,1-1.084-.758Zm8.2,1.353,1.021-4.8h-.864l-.425,1.985H426l.425-1.985h-.868l-1.02,4.8h.864l.444-2.072h2.323l-.444,2.072Zm1.776,0,1.02-4.8h-.864l-1.02,4.8Zm1.928-4.8-1.017,4.8h.864l.336-1.572h1.036a1.837,1.837,0,0,0,2.015-1.858,1.364,1.364,0,0,0-1.5-1.366Zm.718.718h.785c.525,0,.851.256.851.725a1.043,1.043,0,0,1-1.16,1.07h-.864Zm3.484-.718-1.017,4.8h.864l.336-1.572h1.036a1.836,1.836,0,0,0,2.014-1.858,1.364,1.364,0,0,0-1.5-1.366Zm.718.718H438c.525,0,.851.256.851.725a1.043,1.043,0,0,1-1.16,1.07h-.863Zm3.33,4.079,1.021-4.8H440.7l-1.02,4.8Zm1.749,0,.718-3.34h.06l1.662,3.34h.7l1.02-4.8h-.841l-.724,3.361h-.057l-1.658-3.361h-.705l-1.02,4.8Zm8.743-2.5h-1.978l-.139.666h1.133l-.027.12a1.31,1.31,0,0,1-1.336,1.057,1.162,1.162,0,0,1-1.191-1.31c0-1.25.712-2.184,1.652-2.184a.993.993,0,0,1,1.11.881h.844v-.116a1.754,1.754,0,0,0-1.891-1.536,2.727,2.727,0,0,0-2.59,3.022,1.886,1.886,0,0,0,1.981,2.014,2.22,2.22,0,0,0,2.31-1.991Z" transform="translate(0 -4.493)" fill="#1c1e21"/>
      <path id="路径_898" data-name="路径 898" d="M446.26,1100.962a1.106,1.106,0,0,0-1.359-.779l-3.922,1.044-5.1-4.726-1.426.374,3.057,5.27-3.67.978-1.455-1.131-1.071.286,1.344,2.323.569.978,1.184-.316,3.922-1.044,3.213-.852,3.922-1.043A1.118,1.118,0,0,0,446.26,1100.962Z" transform="translate(-2.842)"/>
    </g>
    <rect id="矩形_2678" data-name="矩形 2678" width="70" height="26" transform="translate(453 1048)" fill="none"/>
  </g>
</svg>
