<svg xmlns="http://www.w3.org/2000/svg" width="70" height="26" viewBox="0 0 70 26">
  <g id="mastercard2" transform="translate(-1339 -1961)">
    <rect id="矩形_2642" data-name="矩形 2642" width="70" height="26" transform="translate(1339 1961)" fill="none"/>
    <g id="组_104" data-name="组 104" transform="translate(11 -142)">
      <g id="组_102" data-name="组 102" transform="translate(1348.809 2104)">
        <circle id="椭圆_201" data-name="椭圆 201" cx="9.127" cy="9.127" r="9.127" fill="#e80b26"/>
        <circle id="椭圆_202" data-name="椭圆 202" cx="9.127" cy="9.127" r="9.127" transform="translate(11.208)" fill="#ff8e06" opacity="0.9"/>
      </g>
      <g id="组_1960" data-name="组 1960" transform="translate(1343 2123.672)">
        <path id="路径_843" data-name="路径 843" d="M1376.1,271.645a1.463,1.463,0,0,0-1.256.718,1.407,1.407,0,0,0-2.365-.139v-.493h-.8V275.5h.8v-2.348c0-.378.5-.741.877-.741s.876.24.876.688V275.5h.8v-2.357a.9.9,0,0,1,.859-.739c.377,0,.876.3.876.718V275.5h.8v-2.52A1.479,1.479,0,0,0,1376.1,271.645Z" transform="translate(-1371.672 -270.253)" fill="#231f20"/>
        <path id="路径_844" data-name="路径 844" d="M1382.59,272.172a1.738,1.738,0,0,0-1.232-.527,1.969,1.969,0,0,0,0,3.927,1.741,1.741,0,0,0,1.233-.527v.455h.8v-3.756h-.8Zm-1.114,2.667a1.24,1.24,0,1,1,1.108-1.359c0,.042.006.083.006.127a1.177,1.177,0,0,1-1.108,1.235Z" transform="translate(-1372.983 -270.253)" fill="#231f20"/>
        <path id="路径_845" data-name="路径 845" d="M1409.85,272.172a1.735,1.735,0,0,0-1.232-.527,1.969,1.969,0,0,0,0,3.927,1.735,1.735,0,0,0,1.232-.527v.455h.8v-3.756h-.8Zm-1.113,2.667a1.24,1.24,0,1,1,1.107-1.359c0,.042.006.083.006.127a1.177,1.177,0,0,1-1.11,1.233Z" transform="translate(-1377.525 -270.253)" fill="#231f20"/>
        <path id="路径_846" data-name="路径 846" d="M1418.8,269.976v1.917a1.737,1.737,0,0,0-1.233-.527,1.969,1.969,0,0,0,0,3.927,1.739,1.739,0,0,0,1.232-.527v.455h.8v-5.246Zm-1.114,4.584a1.247,1.247,0,1,1,1.113-1.233,1.176,1.176,0,0,1-1.108,1.233Z" transform="translate(-1379.016 -269.975)" fill="#231f20"/>
        <path id="路径_847" data-name="路径 847" d="M1386.858,273.212c-.965-.077-1.025-.841-.127-.838a1.973,1.973,0,0,1,1.141.329l.44-.667a3.463,3.463,0,0,0-1.578-.4,1.4,1.4,0,0,0-1.519,1.143c0,.542.31,1.157,1.754,1.239.821.06.687.857-.2.81a1.872,1.872,0,0,1-1.284-.43l-.433.63a2.2,2.2,0,0,0,1.6.531c1.114,0,1.768-.564,1.768-1.234S1387.917,273.362,1386.858,273.212Z" transform="translate(-1373.901 -270.251)" fill="#231f20"/>
        <path id="路径_848" data-name="路径 848" d="M1391.807,274.567c-.366.067-.555-.271-.555-.6v-1.679h1.327v-.772h-1.327V270.4h-.84v1.124h-.773v.772h.773v1.924a1.225,1.225,0,0,0,1.166,1.147,2.522,2.522,0,0,0,1.167-.32l-.257-.718a2.5,2.5,0,0,1-.682.238Z" transform="translate(-1374.666 -270.046)" fill="#231f20"/>
        <path id="路径_849" data-name="路径 849" d="M1395.8,271.645a1.964,1.964,0,0,0-.014,3.927,2.042,2.042,0,0,0,1.571-.564l-.391-.608a2.049,2.049,0,0,1-1.139.393,1.012,1.012,0,0,1-1.069-.88h2.763S1397.68,271.645,1395.8,271.645Zm-1.063,1.588a1.013,1.013,0,0,1,.971-.9.89.89,0,0,1,.963.811v.089Z" transform="translate(-1375.372 -270.253)" fill="#231f20"/>
        <path id="路径_850" data-name="路径 850" d="M1400.059,272.155v-.426h-.8v3.71h.8v-2.333a.947.947,0,0,1,.634-.718.667.667,0,0,1,.657.162l.264-.785a.9.9,0,0,0-.569-.126,1.113,1.113,0,0,0-.986.516Z" transform="translate(-1376.268 -270.251)" fill="#231f20"/>
        <path id="路径_851" data-name="路径 851" d="M1413.539,272.155v-.426h-.8v3.71h.8v-2.333a.947.947,0,0,1,.634-.717.667.667,0,0,1,.658.162l.264-.785a.9.9,0,0,0-.569-.126,1.113,1.113,0,0,0-.987.516Z" transform="translate(-1378.514 -270.251)" fill="#231f20"/>
        <path id="路径_852" data-name="路径 852" d="M1404.25,272.412a2.385,2.385,0,0,1,1.038.342l.4-.685a2.688,2.688,0,0,0-1.373-.424,1.907,1.907,0,0,0-2.008,1.8,2.059,2.059,0,0,0,0,.267,2,2,0,0,0,1.987,1.86,2.406,2.406,0,0,0,1.39-.478s-.262-.431-.424-.642a1.661,1.661,0,0,1-1.02.333,1.192,1.192,0,0,1,.009-2.373Z" transform="translate(-1376.775 -270.253)" fill="#231f20"/>
      </g>
    </g>
  </g>
</svg>
