<svg xmlns="http://www.w3.org/2000/svg" width="70" height="26" viewBox="0 0 70 26">
  <g id="tuikuanbaozhang" transform="translate(-1009 -1048)">
    <g id="组_227" data-name="组 227" transform="translate(52.123 -47.345)">
      <path id="路径_907" data-name="路径 907" d="M999.818,1096.58H993.2a.944.944,0,0,0-.94.946l-.005,6.112a.947.947,0,0,0,.417.785l3.839,2.556,3.835-2.556a.948.948,0,0,0,.416-.785l0-6.112A.949.949,0,0,0,999.818,1096.58Zm-4.255,7.092-2.364-2.364.667-.667,1.7,1.692,3.588-3.589.667.672Z" transform="translate(-4.856 -1.235)" fill="#1c1e21"/>
      <path id="路径_908" data-name="路径 908" d="M969.7,1118.855l.739-3.458h.054l.644,3.287h.623l2.068-3.287h.051l-.739,3.458h.821l1.046-4.917h-1.073l-2.253,3.6h-.058l-.7-3.6h-1l-1.046,4.917Z" transform="translate(0 -4.485)" fill="#1c1e21"/>
      <path id="路径_909" data-name="路径 909" d="M979.771,1114.571a1.21,1.21,0,0,1,1.2,1.346c0,1.278-.739,2.231-1.72,2.231a1.214,1.214,0,0,1-1.213-1.346C978.041,1115.539,978.793,1114.571,979.771,1114.571Zm-.559,4.368a2.812,2.812,0,0,0,2.671-3.094,1.981,1.981,0,0,0-2.071-2.068,2.82,2.82,0,0,0-2.678,3.094,1.992,1.992,0,0,0,2.078,2.067Z" transform="translate(-1.964 -4.447)" fill="#1c1e21"/>
      <path id="路径_910" data-name="路径 910" d="M984.44,1118.855l.735-3.424h.062l1.7,3.424h.722l1.046-4.917h-.863l-.742,3.445h-.058l-1.7-3.445h-.722l-1.046,4.917Z" transform="translate(-3.498 -4.485)" fill="#1c1e21"/>
      <path id="路径_911" data-name="路径 911" d="M993.5,1118.091h-2.3l.3-1.376h2.167l.152-.716h-2.17l.286-1.305h2.288l.161-.762H991.2l-1.046,4.917h3.185Z" transform="translate(-5.064 -4.484)" fill="#1c1e21"/>
      <path id="路径_912" data-name="路径 912" d="M997.863,1118.855l.392-1.864,2.371-3.053h-.972l-1.619,2.119h-.061l-.757-2.119H996.3l1.087,2.995-.409,1.922Z" transform="translate(-6.526 -4.485)" fill="#1c1e21"/>
      <path id="路径_913" data-name="路径 913" d="M1005.653,1118.856a1.677,1.677,0,0,0,1.877-1.557.966.966,0,0,0-.869-.975l.01-.062a1.261,1.261,0,0,0,1.094-1.254c0-.644-.555-1.067-1.4-1.067h-1.9l-1.046,4.917Zm-.444-4.232h.838c.546,0,.824.194.824.576,0,.466-.436.793-1.067.793h-.889Zm-.753,3.523.324-1.52h.978c.569,0,.876.229.876.658,0,.5-.466.862-1.1.862Z" transform="translate(-8.22 -4.487)" fill="#1c1e21"/>
      <path id="路径_914" data-name="路径 914" d="M1011.889,1114.875h.058l.245,2.02h-1.414Zm.508,3.973h.889l-.686-4.917h-.964l-2.825,4.917h.924l.686-1.257h1.823Z" transform="translate(-9.502 -4.484)" fill="#1c1e21"/>
      <path id="路径_915" data-name="路径 915" d="M1019.153,1115.559h.862a.9.9,0,0,0,.007-.1,1.787,1.787,0,0,0-1.939-1.69c-1.54,0-2.661,1.308-2.661,3.124a1.9,1.9,0,0,0,1.99,2.041,2.139,2.139,0,0,0,2.235-1.6h-.882a1.3,1.3,0,0,1-1.27.811,1.163,1.163,0,0,1-1.169-1.322c0-1.284.739-2.266,1.7-2.266a1.029,1.029,0,0,1,1.128.971Z" transform="translate(-11.074 -4.444)" fill="#1c1e21"/>
      <path id="路径_916" data-name="路径 916" d="M1022.324,1118.855l.331-1.53.7-.647,1.107,2.177h1l-1.387-2.712,2.32-2.2h-1.067l-2.388,2.246h-.058l.48-2.246h-.876l-1.046,4.917Z" transform="translate(-12.508 -4.486)" fill="#1c1e21"/>
      <path id="路径_917" data-name="路径 917" d="M981.226,1127.244H979.2l-.143.686h1.162l-.027.123a1.344,1.344,0,0,1-1.372,1.083,1.191,1.191,0,0,1-1.219-1.343c0-1.281.729-2.238,1.693-2.238a1.018,1.018,0,0,1,1.135.9h.866v-.12a1.8,1.8,0,0,0-1.939-1.573c-1.543,0-2.657,1.291-2.657,3.1a1.933,1.933,0,0,0,2.03,2.064,2.276,2.276,0,0,0,2.368-2.041Z" transform="translate(-1.859 -8.584)" fill="#1c1e21"/>
      <path id="路径_918" data-name="路径 918" d="M986.9,1126.48h-.848l-.466,2.2a.991.991,0,0,1-.965.865.554.554,0,0,1-.637-.623,2,2,0,0,1,.041-.338l.447-2.1h-.852l-.47,2.238a3.019,3.019,0,0,0-.051.477,1.051,1.051,0,0,0,1.131,1.087,1.24,1.24,0,0,0,1.125-.616h.058l-.12.542h.818Z" transform="translate(-3.384 -8.994)" fill="#1c1e21"/>
      <path id="路径_919" data-name="路径 919" d="M989.517,1129.587c-.361,0-.61-.2-.61-.477,0-.323.3-.538.808-.559l.848-.037-.076.361A.964.964,0,0,1,989.517,1129.587Zm-.334.661a1.316,1.316,0,0,0,1.08-.533h.062l-.1.47h.821l.514-2.423a1.774,1.774,0,0,0,.031-.3c0-.647-.582-1.076-1.458-1.076a1.524,1.524,0,0,0-1.6,1.067h.824a.7.7,0,0,1,.709-.381c.426,0,.686.183.686.484a.764.764,0,0,1-.02.152l-.051.238-.975.037c-1.042.038-1.639.495-1.639,1.244a1.052,1.052,0,0,0,1.119,1.02Z" transform="translate(-4.566 -8.969)" fill="#1c1e21"/>
      <path id="路径_920" data-name="路径 920" d="M992.868,1130.187h.849l.45-2.109c.133-.61.45-.907.981-.907a1.921,1.921,0,0,1,.533.082l.17-.787a1.37,1.37,0,0,0-.457-.068,1.054,1.054,0,0,0-.954.559h-.058l.1-.5h-.821Z" transform="translate(-5.709 -8.975)" fill="#1c1e21"/>
      <path id="路径_921" data-name="路径 921" d="M997.8,1129.587c-.361,0-.61-.2-.61-.477,0-.323.3-.538.807-.559l.849-.037-.076.361A.965.965,0,0,1,997.8,1129.587Zm-.335.661a1.317,1.317,0,0,0,1.081-.533h.061l-.1.47h.821l.515-2.422a1.775,1.775,0,0,0,.03-.3c0-.647-.583-1.076-1.458-1.076a1.519,1.519,0,0,0-1.6,1.067h.824a.7.7,0,0,1,.709-.381c.426,0,.686.184.686.484a.726.726,0,0,1-.021.152l-.051.239-.975.037c-1.042.038-1.638.495-1.638,1.244a1.051,1.051,0,0,0,1.119,1.02Z" transform="translate(-6.536 -8.969)" fill="#1c1e21"/>
      <path id="路径_922" data-name="路径 922" d="M1001.17,1130.188h.849l.476-2.224a.976.976,0,0,1,.937-.838.609.609,0,0,1,.665.644,1.524,1.524,0,0,1-.038.314l-.45,2.109h.845l.48-2.252a2.226,2.226,0,0,0,.048-.436,1.067,1.067,0,0,0-1.124-1.1,1.3,1.3,0,0,0-1.139.64h-.061l.126-.579h-.821Z" transform="translate(-7.684 -8.975)" fill="#1c1e21"/>
      <path id="路径_923" data-name="路径 923" d="M1007.981,1129.946a2.2,2.2,0,0,0,.474-.037l.136-.654a2.343,2.343,0,0,1-.284.017c-.276,0-.432-.109-.432-.358a1.483,1.483,0,0,1,.034-.259l.381-1.753h.8l.146-.675h-.815l.2-.937h-.851l-.194.937h-.609l-.139.675h.609l-.416,1.945a1.67,1.67,0,0,0-.037.324C1006.983,1129.672,1007.387,1129.946,1007.981,1129.946Z" transform="translate(-9.032 -8.711)" fill="#1c1e21"/>
      <path id="路径_924" data-name="路径 924" d="M1010.812,1127.943a1.084,1.084,0,0,1,1.026-.885.706.706,0,0,1,.746.749c0,.048,0,.116-.007.136Zm.686,2.317a1.609,1.609,0,0,0,1.693-1.1h-.838a.908.908,0,0,1-1.638-.641h2.63a3.951,3.951,0,0,0,.055-.589,1.464,1.464,0,0,0-1.519-1.543,2.051,2.051,0,0,0-1.987,2.292,1.5,1.5,0,0,0,1.6,1.584Z" transform="translate(-9.759 -8.971)" fill="#1c1e21"/>
      <path id="路径_925" data-name="路径 925" d="M1015.912,1127.943a1.084,1.084,0,0,1,1.026-.885.707.707,0,0,1,.746.749c0,.048,0,.116-.007.136Zm.686,2.317a1.61,1.61,0,0,0,1.693-1.1h-.838a.892.892,0,0,1-1.645-.508.843.843,0,0,1,.007-.133h2.63a3.951,3.951,0,0,0,.055-.589,1.464,1.464,0,0,0-1.519-1.543,2.051,2.051,0,0,0-1.987,2.292,1.5,1.5,0,0,0,1.6,1.584Z" transform="translate(-10.972 -8.971)" fill="#1c1e21"/>
    </g>
    <rect id="矩形_2682" data-name="矩形 2682" width="70" height="26" transform="translate(1009 1048)" fill="none"/>
  </g>
</svg>
