<svg xmlns="http://www.w3.org/2000/svg" width="70" height="26" viewBox="0 0 70 26">
  <g id="VISA" transform="translate(-1009 -622)">
    <g id="组_1986" data-name="组 1986" transform="translate(52.592 -45.378)">
      <path id="路径_920" data-name="路径 920" d="M972.848,674.578l3.537,12.81h3.771l6.122-14.717h-4l-3.721,10.11-1.784-8.82Z" transform="translate(-0.624 -0.041)" fill="#2c3794"/>
      <path id="路径_921" data-name="路径 921" d="M968.408,672.671h6.074a1.541,1.541,0,0,1,1.633,1.1c.19.945,1.215,6.113,1.215,6.113a15.427,15.427,0,0,0-4.934-5.2c-2.873-1.8-3.987-1.671-3.987-1.671Z" transform="translate(0 -0.04)" fill="#f59611"/>
      <path id="路径_922" data-name="路径 922" d="M989.857,672.672H993.7L991.3,687.389h-3.822Z" transform="translate(-2.682 -0.041)" fill="#2c3794"/>
      <path id="路径_923" data-name="路径 923" d="M1005.837,673.1l-.457,3.088a8.285,8.285,0,0,0-3.34-.682c-1.949,0-2.177,1.289-1.976,1.518.76,1.568,5.189,2.2,5.265,5.72,0,3.467-4.076,4.96-6.353,4.96a13.149,13.149,0,0,1-4.58-1.012l.784-3.266a7.211,7.211,0,0,0,3.472,1.24c1.7,0,2.86-.859,2.86-1.494,0-1.823-5.568-2.48-5.568-5.922,0-2.987,3.392-4.861,6-4.861A8.718,8.718,0,0,1,1005.837,673.1Z" transform="translate(-3.655 0)" fill="#2c3794"/>
      <path id="路径_924" data-name="路径 924" d="M1016.788,687.391h3.417l-2.836-14.716H1013.9a1.787,1.787,0,0,0-1.375.872l-5.77,13.844h3.973l.754-2.05h4.88Zm-4.141-5.188,1.99-5.414,1.1,5.414Z" transform="translate(-5.394 -0.042)" fill="#2c3794"/>
    </g>
    <rect id="矩形_2662" data-name="矩形 2662" width="70" height="26" transform="translate(1009 622)" fill="none"/>
  </g>
</svg>
